<?xml version="1.0" encoding="UTF-8" standalone="no"?>
<!DOCTYPE svg PUBLIC "-//W3C//DTD SVG 1.1//EN"
 "http://www.w3.org/Graphics/SVG/1.1/DTD/svg11.dtd">
<!-- Generated by graphviz version 2.43.0 (0)
 -->
<!-- Title: lsl::stream_outlet::push_sample Pages: 1 -->
<svg width="248pt" height="79pt"
 viewBox="0.00 0.00 248.00 79.00" xmlns="http://www.w3.org/2000/svg" xmlns:xlink="http://www.w3.org/1999/xlink">
<g id="graph0" class="graph" transform="scale(1 1) rotate(0) translate(4 75)">
<title>lsl::stream_outlet::push_sample</title>
<!-- Node1 -->
<g id="node1" class="node">
<title>Node1</title>
<g id="a_node1"><a xlink:title=" ">
<polygon fill="#bfbfbf" stroke="black" points="138,-22.5 138,-52.5 240,-52.5 240,-22.5 138,-22.5"/>
<text text-anchor="start" x="146" y="-40.5" font-family="Helvetica,sans-Serif" font-size="10.00">lsl::stream_outlet</text>
<text text-anchor="middle" x="189" y="-29.5" font-family="Helvetica,sans-Serif" font-size="10.00">::push_sample</text>
</a>
</g>
</g>
<!-- Node1&#45;&gt;Node1 -->
<g id="edge3" class="edge">
<title>Node1&#45;&gt;Node1</title>
<path fill="none" stroke="midnightblue" d="M213.52,-62.96C210.48,-67.68 202.3,-71 189,-71 167.17,-71 159.15,-62.06 164.95,-52.66"/>
<polygon fill="midnightblue" stroke="midnightblue" points="217,-62.49 213.05,-52.66 210.01,-62.81 217,-62.49"/>
</g>
<!-- Node2 -->
<g id="node2" class="node">
<title>Node2</title>
<g id="a_node2"><a xlink:href="../../de/dfb/src_2main_8cpp.html#a3c04138a5bfe5d72780bb7e82a18e627" target="_top" xlink:title=" ">
<polygon fill="none" stroke="black" points="30.5,-50 30.5,-69 71.5,-69 71.5,-50 30.5,-50"/>
<text text-anchor="middle" x="51" y="-57" font-family="Helvetica,sans-Serif" font-size="10.00">main</text>
</a>
</g>
</g>
<!-- Node1&#45;&gt;Node2 -->
<g id="edge1" class="edge">
<title>Node1&#45;&gt;Node2</title>
<path fill="none" stroke="midnightblue" d="M127.62,-47.27C107.43,-50.53 86.33,-53.95 71.57,-56.33"/>
<polygon fill="midnightblue" stroke="midnightblue" points="128.43,-50.68 137.75,-45.63 127.31,-43.77 128.43,-50.68"/>
</g>
<!-- Node3 -->
<g id="node3" class="node">
<title>Node3</title>
<g id="a_node3"><a xlink:href="../../d6/d55/classlsl_1_1stream__outlet.html#a58427b98e8a60e7d160534078f3e04f8" target="_top" xlink:title=" ">
<polygon fill="none" stroke="black" points="0,-0.5 0,-30.5 102,-30.5 102,-0.5 0,-0.5"/>
<text text-anchor="start" x="8" y="-18.5" font-family="Helvetica,sans-Serif" font-size="10.00">lsl::stream_outlet</text>
<text text-anchor="middle" x="51" y="-7.5" font-family="Helvetica,sans-Serif" font-size="10.00">::push_chunk</text>
</a>
</g>
</g>
<!-- Node1&#45;&gt;Node3 -->
<g id="edge2" class="edge">
<title>Node1&#45;&gt;Node3</title>
<path fill="none" stroke="midnightblue" d="M127.77,-27.76C119.18,-26.37 110.42,-24.95 102.05,-23.6"/>
<polygon fill="midnightblue" stroke="midnightblue" points="127.31,-31.23 137.75,-29.37 128.43,-24.32 127.31,-31.23"/>
</g>
</g>
</svg>
