<?xml version="1.0" encoding="UTF-8" standalone="no"?>
<!DOCTYPE svg PUBLIC "-//W3C//DTD SVG 1.1//EN"
 "http://www.w3.org/Graphics/SVG/1.1/DTD/svg11.dtd">
<!-- Generated by graphviz version 2.43.0 (0)
 -->
<!-- Title: /home/aightech/dev/kistler_DAQ/lib/com_client/lib/strANSIseq/include/strANSIseq.hpp Pages: 1 -->
<svg width="585pt" height="317pt"
 viewBox="0.00 0.00 584.50 317.00" xmlns="http://www.w3.org/2000/svg" xmlns:xlink="http://www.w3.org/1999/xlink">
<g id="graph0" class="graph" transform="scale(1 1) rotate(0) translate(4 313)">
<title>/home/aightech/dev/kistler_DAQ/lib/com_client/lib/strANSIseq/include/strANSIseq.hpp</title>
<!-- Node1 -->
<g id="node1" class="node">
<title>Node1</title>
<g id="a_node1"><a xlink:title=" ">
<polygon fill="#bfbfbf" stroke="black" points="312.5,-256.5 312.5,-308.5 444.5,-308.5 444.5,-256.5 312.5,-256.5"/>
<text text-anchor="start" x="320.5" y="-296.5" font-family="Helvetica,sans-Serif" font-size="10.00">/home/aightech/dev</text>
<text text-anchor="start" x="320.5" y="-285.5" font-family="Helvetica,sans-Serif" font-size="10.00">/kistler_DAQ/lib/com</text>
<text text-anchor="start" x="320.5" y="-274.5" font-family="Helvetica,sans-Serif" font-size="10.00">_client/lib/strANSIseq</text>
<text text-anchor="middle" x="378.5" y="-263.5" font-family="Helvetica,sans-Serif" font-size="10.00">/include/strANSIseq.hpp</text>
</a>
</g>
</g>
<!-- Node2 -->
<g id="node2" class="node">
<title>Node2</title>
<g id="a_node2"><a xlink:href="../../dc/d13/com__client_8hpp.html" target="_top" xlink:title=" ">
<polygon fill="none" stroke="black" points="136.5,-173 136.5,-214 300.5,-214 300.5,-173 136.5,-173"/>
<text text-anchor="start" x="144.5" y="-202" font-family="Helvetica,sans-Serif" font-size="10.00">/home/aightech/dev</text>
<text text-anchor="start" x="144.5" y="-191" font-family="Helvetica,sans-Serif" font-size="10.00">/kistler_DAQ/lib/com</text>
<text text-anchor="middle" x="218.5" y="-180" font-family="Helvetica,sans-Serif" font-size="10.00">_client/include/com_client.hpp</text>
</a>
</g>
</g>
<!-- Node1&#45;&gt;Node2 -->
<g id="edge1" class="edge">
<title>Node1&#45;&gt;Node2</title>
<path fill="none" stroke="midnightblue" d="M323.33,-251.5C300.55,-239.12 274.8,-225.11 254.51,-214.08"/>
<polygon fill="midnightblue" stroke="midnightblue" points="321.76,-254.63 332.22,-256.34 325.11,-248.48 321.76,-254.63"/>
</g>
<!-- Node7 -->
<g id="node7" class="node">
<title>Node7</title>
<g id="a_node7"><a xlink:href="../../d0/d3f/lib_2str_a_n_s_iseq_2src_2main_8cpp.html" target="_top" xlink:title=" ">
<polygon fill="none" stroke="black" points="318.5,-167.5 318.5,-219.5 438.5,-219.5 438.5,-167.5 318.5,-167.5"/>
<text text-anchor="start" x="326.5" y="-207.5" font-family="Helvetica,sans-Serif" font-size="10.00">/home/aightech/dev</text>
<text text-anchor="start" x="326.5" y="-196.5" font-family="Helvetica,sans-Serif" font-size="10.00">/kistler_DAQ/lib/com</text>
<text text-anchor="start" x="326.5" y="-185.5" font-family="Helvetica,sans-Serif" font-size="10.00">_client/lib/strANSIseq</text>
<text text-anchor="middle" x="378.5" y="-174.5" font-family="Helvetica,sans-Serif" font-size="10.00">/src/main.cpp</text>
</a>
</g>
</g>
<!-- Node1&#45;&gt;Node7 -->
<g id="edge6" class="edge">
<title>Node1&#45;&gt;Node7</title>
<path fill="none" stroke="midnightblue" d="M378.5,-246.19C378.5,-237.28 378.5,-227.9 378.5,-219.61"/>
<polygon fill="midnightblue" stroke="midnightblue" points="375,-246.34 378.5,-256.34 382,-246.34 375,-246.34"/>
</g>
<!-- Node8 -->
<g id="node8" class="node">
<title>Node8</title>
<g id="a_node8"><a xlink:href="../../dd/d40/str_a_n_s_iseq_8cpp.html" target="_top" xlink:title=" ">
<polygon fill="none" stroke="black" points="456.5,-167.5 456.5,-219.5 576.5,-219.5 576.5,-167.5 456.5,-167.5"/>
<text text-anchor="start" x="464.5" y="-207.5" font-family="Helvetica,sans-Serif" font-size="10.00">/home/aightech/dev</text>
<text text-anchor="start" x="464.5" y="-196.5" font-family="Helvetica,sans-Serif" font-size="10.00">/kistler_DAQ/lib/com</text>
<text text-anchor="start" x="464.5" y="-185.5" font-family="Helvetica,sans-Serif" font-size="10.00">_client/lib/strANSIseq</text>
<text text-anchor="middle" x="516.5" y="-174.5" font-family="Helvetica,sans-Serif" font-size="10.00">/src/strANSIseq.cpp</text>
</a>
</g>
</g>
<!-- Node1&#45;&gt;Node8 -->
<g id="edge7" class="edge">
<title>Node1&#45;&gt;Node8</title>
<path fill="none" stroke="midnightblue" d="M427.22,-250.79C443.41,-240.58 461.24,-229.34 476.67,-219.61"/>
<polygon fill="midnightblue" stroke="midnightblue" points="425.01,-248.04 418.42,-256.34 428.74,-253.96 425.01,-248.04"/>
</g>
<!-- Node3 -->
<g id="node3" class="node">
<title>Node3</title>
<g id="a_node3"><a xlink:href="../../d9/dcd/http__client_8hpp.html" target="_top" xlink:title=" ">
<polygon fill="none" stroke="black" points="12.5,-78.5 12.5,-130.5 128.5,-130.5 128.5,-78.5 12.5,-78.5"/>
<text text-anchor="start" x="20.5" y="-118.5" font-family="Helvetica,sans-Serif" font-size="10.00">/home/aightech/dev</text>
<text text-anchor="start" x="20.5" y="-107.5" font-family="Helvetica,sans-Serif" font-size="10.00">/kistler_DAQ/lib/com</text>
<text text-anchor="start" x="20.5" y="-96.5" font-family="Helvetica,sans-Serif" font-size="10.00">_client/include/http</text>
<text text-anchor="middle" x="70.5" y="-85.5" font-family="Helvetica,sans-Serif" font-size="10.00">_client.hpp</text>
</a>
</g>
</g>
<!-- Node2&#45;&gt;Node3 -->
<g id="edge2" class="edge">
<title>Node2&#45;&gt;Node3</title>
<path fill="none" stroke="midnightblue" d="M176.48,-167.8C156.66,-156.15 133.07,-142.28 113.17,-130.58"/>
<polygon fill="midnightblue" stroke="midnightblue" points="174.89,-170.93 185.29,-172.98 178.44,-164.89 174.89,-170.93"/>
</g>
<!-- Node5 -->
<g id="node5" class="node">
<title>Node5</title>
<g id="a_node5"><a xlink:href="../../d8/da5/com__client_8cpp.html" target="_top" xlink:title=" ">
<polygon fill="none" stroke="black" points="147,-84 147,-125 290,-125 290,-84 147,-84"/>
<text text-anchor="start" x="155" y="-113" font-family="Helvetica,sans-Serif" font-size="10.00">/home/aightech/dev</text>
<text text-anchor="start" x="155" y="-102" font-family="Helvetica,sans-Serif" font-size="10.00">/kistler_DAQ/lib/com</text>
<text text-anchor="middle" x="218.5" y="-91" font-family="Helvetica,sans-Serif" font-size="10.00">_client/src/com_client.cpp</text>
</a>
</g>
</g>
<!-- Node2&#45;&gt;Node5 -->
<g id="edge4" class="edge">
<title>Node2&#45;&gt;Node5</title>
<path fill="none" stroke="midnightblue" d="M218.5,-162.44C218.5,-150.1 218.5,-136.16 218.5,-125.16"/>
<polygon fill="midnightblue" stroke="midnightblue" points="215,-162.76 218.5,-172.76 222,-162.76 215,-162.76"/>
</g>
<!-- Node6 -->
<g id="node6" class="node">
<title>Node6</title>
<g id="a_node6"><a xlink:href="../../de/dfb/src_2main_8cpp.html" target="_top" xlink:title=" ">
<polygon fill="none" stroke="black" points="308.5,-84 308.5,-125 424.5,-125 424.5,-84 308.5,-84"/>
<text text-anchor="start" x="316.5" y="-113" font-family="Helvetica,sans-Serif" font-size="10.00">/home/aightech/dev</text>
<text text-anchor="start" x="316.5" y="-102" font-family="Helvetica,sans-Serif" font-size="10.00">/kistler_DAQ/lib/com</text>
<text text-anchor="middle" x="366.5" y="-91" font-family="Helvetica,sans-Serif" font-size="10.00">_client/src/main.cpp</text>
</a>
</g>
</g>
<!-- Node2&#45;&gt;Node6 -->
<g id="edge5" class="edge">
<title>Node2&#45;&gt;Node6</title>
<path fill="none" stroke="midnightblue" d="M260.58,-167.77C283.58,-154.24 311.67,-137.73 333.14,-125.11"/>
<polygon fill="midnightblue" stroke="midnightblue" points="258.56,-164.89 251.71,-172.98 262.11,-170.93 258.56,-164.89"/>
</g>
<!-- Node4 -->
<g id="node4" class="node">
<title>Node4</title>
<g id="a_node4"><a xlink:href="../../d5/d08/http__client_8cpp.html" target="_top" xlink:title=" ">
<polygon fill="none" stroke="black" points="0,-0.5 0,-41.5 141,-41.5 141,-0.5 0,-0.5"/>
<text text-anchor="start" x="8" y="-29.5" font-family="Helvetica,sans-Serif" font-size="10.00">/home/aightech/dev</text>
<text text-anchor="start" x="8" y="-18.5" font-family="Helvetica,sans-Serif" font-size="10.00">/kistler_DAQ/lib/com</text>
<text text-anchor="middle" x="70.5" y="-7.5" font-family="Helvetica,sans-Serif" font-size="10.00">_client/src/http_client.cpp</text>
</a>
</g>
</g>
<!-- Node3&#45;&gt;Node4 -->
<g id="edge3" class="edge">
<title>Node3&#45;&gt;Node4</title>
<path fill="none" stroke="midnightblue" d="M70.5,-68.15C70.5,-59.05 70.5,-49.6 70.5,-41.63"/>
<polygon fill="midnightblue" stroke="midnightblue" points="67,-68.16 70.5,-78.16 74,-68.16 67,-68.16"/>
</g>
</g>
</svg>
