<?xml version="1.0" encoding="UTF-8" standalone="no"?>
<!DOCTYPE svg PUBLIC "-//W3C//DTD SVG 1.1//EN"
 "http://www.w3.org/Graphics/SVG/1.1/DTD/svg11.dtd">
<!-- Generated by graphviz version 2.43.0 (0)
 -->
<!-- Title: /home/aightech/dev/kistler_DAQ/lib/com_client/src/main.cpp Pages: 1 -->
<svg width="815pt" height="218pt"
 viewBox="0.00 0.00 814.50 218.00" xmlns="http://www.w3.org/2000/svg" xmlns:xlink="http://www.w3.org/1999/xlink">
<g id="graph0" class="graph" transform="scale(1 1) rotate(0) translate(4 214)">
<title>/home/aightech/dev/kistler_DAQ/lib/com_client/src/main.cpp</title>
<!-- Node1 -->
<g id="node1" class="node">
<title>Node1</title>
<g id="a_node1"><a xlink:title=" ">
<polygon fill="#bfbfbf" stroke="black" points="369.5,-168.5 369.5,-209.5 485.5,-209.5 485.5,-168.5 369.5,-168.5"/>
<text text-anchor="start" x="377.5" y="-197.5" font-family="Helvetica,sans-Serif" font-size="10.00">/home/aightech/dev</text>
<text text-anchor="start" x="377.5" y="-186.5" font-family="Helvetica,sans-Serif" font-size="10.00">/kistler_DAQ/lib/com</text>
<text text-anchor="middle" x="427.5" y="-175.5" font-family="Helvetica,sans-Serif" font-size="10.00">_client/src/main.cpp</text>
</a>
</g>
</g>
<!-- Node2 -->
<g id="node2" class="node">
<title>Node2</title>
<g id="a_node2"><a xlink:title=" ">
<polygon fill="none" stroke="#bfbfbf" points="0,-112.5 0,-131.5 47,-131.5 47,-112.5 0,-112.5"/>
<text text-anchor="middle" x="23.5" y="-119.5" font-family="Helvetica,sans-Serif" font-size="10.00">cmath</text>
</a>
</g>
</g>
<!-- Node1&#45;&gt;Node2 -->
<g id="edge1" class="edge">
<title>Node1&#45;&gt;Node2</title>
<path fill="none" stroke="midnightblue" d="M369.29,-181.34C297.99,-172.72 173.43,-156.11 57.34,-131.95"/>
<polygon fill="midnightblue" stroke="midnightblue" points="57.72,-128.46 47.21,-129.82 56.28,-135.31 57.72,-128.46"/>
</g>
<!-- Node3 -->
<g id="node3" class="node">
<title>Node3</title>
<g id="a_node3"><a xlink:title=" ">
<polygon fill="none" stroke="#bfbfbf" points="65.5,-112.5 65.5,-131.5 115.5,-131.5 115.5,-112.5 65.5,-112.5"/>
<text text-anchor="middle" x="90.5" y="-119.5" font-family="Helvetica,sans-Serif" font-size="10.00">cstring</text>
</a>
</g>
</g>
<!-- Node1&#45;&gt;Node3 -->
<g id="edge2" class="edge">
<title>Node1&#45;&gt;Node3</title>
<path fill="none" stroke="midnightblue" d="M369.4,-177.81C309.23,-167.09 212.59,-149.39 129.5,-132 128.24,-131.74 126.95,-131.46 125.66,-131.18"/>
<polygon fill="midnightblue" stroke="midnightblue" points="126.16,-127.71 115.64,-128.96 124.65,-134.54 126.16,-127.71"/>
</g>
<!-- Node4 -->
<g id="node4" class="node">
<title>Node4</title>
<g id="a_node4"><a xlink:title=" ">
<polygon fill="none" stroke="#bfbfbf" points="125.5,-0.5 125.5,-19.5 185.5,-19.5 185.5,-0.5 125.5,-0.5"/>
<text text-anchor="middle" x="155.5" y="-7.5" font-family="Helvetica,sans-Serif" font-size="10.00">iostream</text>
</a>
</g>
</g>
<!-- Node1&#45;&gt;Node4 -->
<g id="edge3" class="edge">
<title>Node1&#45;&gt;Node4</title>
<path fill="none" stroke="midnightblue" d="M369.47,-176.18C313.02,-161.79 228.54,-132.12 177.5,-76 165.86,-63.2 160.35,-44.01 157.76,-29.8"/>
<polygon fill="midnightblue" stroke="midnightblue" points="161.18,-29.06 156.24,-19.68 154.26,-30.09 161.18,-29.06"/>
</g>
<!-- Node5 -->
<g id="node5" class="node">
<title>Node5</title>
<g id="a_node5"><a xlink:title=" ">
<polygon fill="none" stroke="#bfbfbf" points="442.5,-0.5 442.5,-19.5 486.5,-19.5 486.5,-0.5 442.5,-0.5"/>
<text text-anchor="middle" x="464.5" y="-7.5" font-family="Helvetica,sans-Serif" font-size="10.00">string</text>
</a>
</g>
</g>
<!-- Node1&#45;&gt;Node5 -->
<g id="edge4" class="edge">
<title>Node1&#45;&gt;Node5</title>
<path fill="none" stroke="midnightblue" d="M431.6,-168.38C438.8,-133.93 453.62,-63.04 460.64,-29.44"/>
<polygon fill="midnightblue" stroke="midnightblue" points="464.09,-30.09 462.71,-19.58 457.23,-28.66 464.09,-30.09"/>
</g>
<!-- Node6 -->
<g id="node6" class="node">
<title>Node6</title>
<g id="a_node6"><a xlink:title=" ">
<polygon fill="none" stroke="#bfbfbf" points="675,-0.5 675,-19.5 722,-19.5 722,-0.5 675,-0.5"/>
<text text-anchor="middle" x="698.5" y="-7.5" font-family="Helvetica,sans-Serif" font-size="10.00">vector</text>
</a>
</g>
</g>
<!-- Node1&#45;&gt;Node6 -->
<g id="edge5" class="edge">
<title>Node1&#45;&gt;Node6</title>
<path fill="none" stroke="midnightblue" d="M485.52,-178.17C526.1,-169.74 580.66,-155.19 624.5,-132 658.81,-113.85 673.2,-110.23 691.5,-76 699.11,-61.77 700.42,-43.29 700.09,-29.68"/>
<polygon fill="midnightblue" stroke="midnightblue" points="703.58,-29.38 699.52,-19.59 696.59,-29.77 703.58,-29.38"/>
</g>
<!-- Node7 -->
<g id="node7" class="node">
<title>Node7</title>
<g id="a_node7"><a xlink:title=" ">
<polygon fill="none" stroke="#bfbfbf" points="756.5,-112.5 756.5,-131.5 806.5,-131.5 806.5,-112.5 756.5,-112.5"/>
<text text-anchor="middle" x="781.5" y="-119.5" font-family="Helvetica,sans-Serif" font-size="10.00">stdio.h</text>
</a>
</g>
</g>
<!-- Node1&#45;&gt;Node7 -->
<g id="edge6" class="edge">
<title>Node1&#45;&gt;Node7</title>
<path fill="none" stroke="midnightblue" d="M485.73,-178.56C549.07,-168.08 653.25,-150.22 742.5,-132 743.76,-131.74 745.05,-131.47 746.35,-131.2"/>
<polygon fill="midnightblue" stroke="midnightblue" points="747.35,-134.56 756.37,-129 745.85,-127.73 747.35,-134.56"/>
</g>
<!-- Node8 -->
<g id="node8" class="node">
<title>Node8</title>
<g id="a_node8"><a xlink:href="../../dc/d13/com__client_8hpp.html" target="_top" xlink:title=" ">
<polygon fill="none" stroke="black" points="322,-112.5 322,-131.5 413,-131.5 413,-112.5 322,-112.5"/>
<text text-anchor="middle" x="367.5" y="-119.5" font-family="Helvetica,sans-Serif" font-size="10.00">com_client.hpp</text>
</a>
</g>
</g>
<!-- Node1&#45;&gt;Node8 -->
<g id="edge7" class="edge">
<title>Node1&#45;&gt;Node8</title>
<path fill="none" stroke="midnightblue" d="M409.5,-168.5C400.83,-159.11 390.56,-147.98 382.35,-139.08"/>
<polygon fill="midnightblue" stroke="midnightblue" points="384.84,-136.63 375.49,-131.65 379.7,-141.37 384.84,-136.63"/>
</g>
<!-- Node16 -->
<g id="node16" class="node">
<title>Node16</title>
<g id="a_node16"><a xlink:href="../../d1/d7c/lsl__cpp_8h.html" target="_top" xlink:title=" ">
<polygon fill="none" stroke="black" points="557,-112.5 557,-131.5 616,-131.5 616,-112.5 557,-112.5"/>
<text text-anchor="middle" x="586.5" y="-119.5" font-family="Helvetica,sans-Serif" font-size="10.00">lsl_cpp.h</text>
</a>
</g>
</g>
<!-- Node1&#45;&gt;Node16 -->
<g id="edge19" class="edge">
<title>Node1&#45;&gt;Node16</title>
<path fill="none" stroke="midnightblue" d="M475.21,-168.5C501.34,-157.81 532.97,-144.89 555.81,-135.54"/>
<polygon fill="midnightblue" stroke="midnightblue" points="557.4,-138.68 565.33,-131.65 554.75,-132.2 557.4,-138.68"/>
</g>
<!-- Node8&#45;&gt;Node4 -->
<g id="edge8" class="edge">
<title>Node8&#45;&gt;Node4</title>
<path fill="none" stroke="midnightblue" d="M321.71,-117.26C285.94,-112.43 236.45,-101.35 200.5,-76 183.55,-64.05 170.93,-43.55 163.43,-28.77"/>
<polygon fill="midnightblue" stroke="midnightblue" points="166.54,-27.14 159.07,-19.62 160.22,-30.15 166.54,-27.14"/>
</g>
<!-- Node9 -->
<g id="node9" class="node">
<title>Node9</title>
<g id="a_node9"><a xlink:title=" ">
<polygon fill="none" stroke="#bfbfbf" points="319,-56.5 319,-75.5 370,-75.5 370,-56.5 319,-56.5"/>
<text text-anchor="middle" x="344.5" y="-63.5" font-family="Helvetica,sans-Serif" font-size="10.00">math.h</text>
</a>
</g>
</g>
<!-- Node8&#45;&gt;Node9 -->
<g id="edge9" class="edge">
<title>Node8&#45;&gt;Node9</title>
<path fill="none" stroke="midnightblue" d="M363.7,-112.08C360.59,-104.77 356.08,-94.18 352.21,-85.1"/>
<polygon fill="midnightblue" stroke="midnightblue" points="355.37,-83.58 348.23,-75.75 348.93,-86.32 355.37,-83.58"/>
</g>
<!-- Node10 -->
<g id="node10" class="node">
<title>Node10</title>
<g id="a_node10"><a xlink:title=" ">
<polygon fill="none" stroke="#bfbfbf" points="388.5,-56.5 388.5,-75.5 436.5,-75.5 436.5,-56.5 388.5,-56.5"/>
<text text-anchor="middle" x="412.5" y="-63.5" font-family="Helvetica,sans-Serif" font-size="10.00">mutex</text>
</a>
</g>
</g>
<!-- Node8&#45;&gt;Node10 -->
<g id="edge10" class="edge">
<title>Node8&#45;&gt;Node10</title>
<path fill="none" stroke="midnightblue" d="M374.93,-112.08C381.35,-104.38 390.81,-93.03 398.62,-83.65"/>
<polygon fill="midnightblue" stroke="midnightblue" points="401.49,-85.67 405.21,-75.75 396.12,-81.19 401.49,-85.67"/>
</g>
<!-- Node11 -->
<g id="node11" class="node">
<title>Node11</title>
<g id="a_node11"><a xlink:title=" ">
<polygon fill="none" stroke="#bfbfbf" points="493,-56.5 493,-75.5 558,-75.5 558,-56.5 493,-56.5"/>
<text text-anchor="middle" x="525.5" y="-63.5" font-family="Helvetica,sans-Serif" font-size="10.00">stdexcept</text>
</a>
</g>
</g>
<!-- Node8&#45;&gt;Node11 -->
<g id="edge11" class="edge">
<title>Node8&#45;&gt;Node11</title>
<path fill="none" stroke="midnightblue" d="M392.54,-112.44C419.12,-103.36 461.31,-88.94 491.02,-78.78"/>
<polygon fill="midnightblue" stroke="midnightblue" points="492.25,-82.06 500.58,-75.52 489.99,-75.44 492.25,-82.06"/>
</g>
<!-- Node12 -->
<g id="node12" class="node">
<title>Node12</title>
<g id="a_node12"><a xlink:href="../../df/df2/str_a_n_s_iseq_8hpp.html" target="_top" xlink:title=" ">
<polygon fill="none" stroke="black" points="210,-56.5 210,-75.5 301,-75.5 301,-56.5 210,-56.5"/>
<text text-anchor="middle" x="255.5" y="-63.5" font-family="Helvetica,sans-Serif" font-size="10.00">strANSIseq.hpp</text>
</a>
</g>
</g>
<!-- Node8&#45;&gt;Node12 -->
<g id="edge12" class="edge">
<title>Node8&#45;&gt;Node12</title>
<path fill="none" stroke="midnightblue" d="M349.51,-112.32C331.46,-103.62 303.45,-90.12 282.7,-80.11"/>
<polygon fill="midnightblue" stroke="midnightblue" points="283.98,-76.84 273.45,-75.65 280.94,-83.15 283.98,-76.84"/>
</g>
<!-- Node12&#45;&gt;Node4 -->
<g id="edge14" class="edge">
<title>Node12&#45;&gt;Node4</title>
<path fill="none" stroke="midnightblue" d="M239.43,-56.32C223.54,-47.74 198.99,-34.49 180.54,-24.52"/>
<polygon fill="midnightblue" stroke="midnightblue" points="181.99,-21.33 171.53,-19.65 178.66,-27.49 181.99,-21.33"/>
</g>
<!-- Node12&#45;&gt;Node5 -->
<g id="edge15" class="edge">
<title>Node12&#45;&gt;Node5</title>
<path fill="none" stroke="midnightblue" d="M288.62,-56.44C328.13,-46.23 393.74,-29.28 432.68,-19.22"/>
<polygon fill="midnightblue" stroke="midnightblue" points="433.63,-22.59 442.44,-16.7 431.88,-15.81 433.63,-22.59"/>
</g>
<!-- Node12&#45;&gt;Node6 -->
<g id="edge16" class="edge">
<title>Node12&#45;&gt;Node6</title>
<path fill="none" stroke="midnightblue" d="M301.13,-57.18C303.96,-56.76 306.77,-56.37 309.5,-56 463.89,-35.35 507.37,-48.46 664.78,-19.82"/>
<polygon fill="midnightblue" stroke="midnightblue" points="665.62,-23.22 674.82,-17.96 664.35,-16.34 665.62,-23.22"/>
</g>
<!-- Node13 -->
<g id="node13" class="node">
<title>Node13</title>
<g id="a_node13"><a xlink:title=" ">
<polygon fill="none" stroke="#bfbfbf" points="359,-0.5 359,-19.5 412,-19.5 412,-0.5 359,-0.5"/>
<text text-anchor="middle" x="385.5" y="-7.5" font-family="Helvetica,sans-Serif" font-size="10.00">cstdarg</text>
</a>
</g>
</g>
<!-- Node12&#45;&gt;Node13 -->
<g id="edge13" class="edge">
<title>Node12&#45;&gt;Node13</title>
<path fill="none" stroke="midnightblue" d="M276.1,-56.44C297.49,-47.56 331.18,-33.56 355.52,-23.45"/>
<polygon fill="midnightblue" stroke="midnightblue" points="357.11,-26.58 365,-19.52 354.42,-20.12 357.11,-26.58"/>
</g>
<!-- Node14 -->
<g id="node14" class="node">
<title>Node14</title>
<g id="a_node14"><a xlink:title=" ">
<polygon fill="none" stroke="#bfbfbf" points="203.5,-0.5 203.5,-19.5 259.5,-19.5 259.5,-0.5 203.5,-0.5"/>
<text text-anchor="middle" x="231.5" y="-7.5" font-family="Helvetica,sans-Serif" font-size="10.00">unistd.h</text>
</a>
</g>
</g>
<!-- Node12&#45;&gt;Node14 -->
<g id="edge17" class="edge">
<title>Node12&#45;&gt;Node14</title>
<path fill="none" stroke="midnightblue" d="M251.54,-56.08C248.29,-48.77 243.58,-38.18 239.55,-29.1"/>
<polygon fill="midnightblue" stroke="midnightblue" points="242.65,-27.47 235.39,-19.75 236.25,-30.31 242.65,-27.47"/>
</g>
<!-- Node15 -->
<g id="node15" class="node">
<title>Node15</title>
<g id="a_node15"><a xlink:title=" ">
<polygon fill="none" stroke="#bfbfbf" points="278,-0.5 278,-19.5 341,-19.5 341,-0.5 278,-0.5"/>
<text text-anchor="middle" x="309.5" y="-7.5" font-family="Helvetica,sans-Serif" font-size="10.00">termios.h</text>
</a>
</g>
</g>
<!-- Node12&#45;&gt;Node15 -->
<g id="edge18" class="edge">
<title>Node12&#45;&gt;Node15</title>
<path fill="none" stroke="midnightblue" d="M264.42,-56.08C272.28,-48.22 283.93,-36.57 293.42,-27.08"/>
<polygon fill="midnightblue" stroke="midnightblue" points="296.15,-29.3 300.75,-19.75 291.2,-24.35 296.15,-29.3"/>
</g>
<!-- Node16&#45;&gt;Node5 -->
<g id="edge20" class="edge">
<title>Node16&#45;&gt;Node5</title>
<path fill="none" stroke="midnightblue" d="M586.07,-112.32C584.95,-98.71 580.94,-72.23 566.5,-56 548.32,-35.56 519.12,-23.97 496.61,-17.69"/>
<polygon fill="midnightblue" stroke="midnightblue" points="497.36,-14.27 486.8,-15.17 495.61,-21.05 497.36,-14.27"/>
</g>
<!-- Node16&#45;&gt;Node6 -->
<g id="edge21" class="edge">
<title>Node16&#45;&gt;Node6</title>
<path fill="none" stroke="midnightblue" d="M612.18,-112.47C630.5,-105.26 654.61,-93.3 670.5,-76 682.57,-62.86 689.95,-43.72 694.09,-29.61"/>
<polygon fill="midnightblue" stroke="midnightblue" points="697.56,-30.14 696.73,-19.58 690.8,-28.36 697.56,-30.14"/>
</g>
<!-- Node16&#45;&gt;Node11 -->
<g id="edge22" class="edge">
<title>Node16&#45;&gt;Node11</title>
<path fill="none" stroke="midnightblue" d="M576.7,-112.32C567.68,-104.34 554.09,-92.31 543.18,-82.65"/>
<polygon fill="midnightblue" stroke="midnightblue" points="545.29,-79.84 535.48,-75.83 540.65,-85.08 545.29,-79.84"/>
</g>
<!-- Node17 -->
<g id="node17" class="node">
<title>Node17</title>
<g id="a_node17"><a xlink:href="../../db/df3/lsl__c_8h.html" target="_top" xlink:title=" ">
<polygon fill="none" stroke="black" points="615,-56.5 615,-75.5 662,-75.5 662,-56.5 615,-56.5"/>
<text text-anchor="middle" x="638.5" y="-63.5" font-family="Helvetica,sans-Serif" font-size="10.00">lsl_c.h</text>
</a>
</g>
</g>
<!-- Node16&#45;&gt;Node17 -->
<g id="edge23" class="edge">
<title>Node16&#45;&gt;Node17</title>
<path fill="none" stroke="midnightblue" d="M595.09,-112.08C602.66,-104.22 613.88,-92.57 623.01,-83.08"/>
<polygon fill="midnightblue" stroke="midnightblue" points="625.66,-85.38 630.07,-75.75 620.62,-80.53 625.66,-85.38"/>
</g>
<!-- Node18 -->
<g id="node18" class="node">
<title>Node18</title>
<g id="a_node18"><a xlink:title=" ">
<polygon fill="none" stroke="#bfbfbf" points="604,-0.5 604,-19.5 657,-19.5 657,-0.5 604,-0.5"/>
<text text-anchor="middle" x="630.5" y="-7.5" font-family="Helvetica,sans-Serif" font-size="10.00">stdint.h</text>
</a>
</g>
</g>
<!-- Node17&#45;&gt;Node18 -->
<g id="edge24" class="edge">
<title>Node17&#45;&gt;Node18</title>
<path fill="none" stroke="midnightblue" d="M637.18,-56.08C636.12,-48.93 634.59,-38.64 633.27,-29.69"/>
<polygon fill="midnightblue" stroke="midnightblue" points="636.72,-29.13 631.8,-19.75 629.8,-30.16 636.72,-29.13"/>
</g>
</g>
</svg>
