<?xml version="1.0" encoding="UTF-8" standalone="no"?>
<!DOCTYPE svg PUBLIC "-//W3C//DTD SVG 1.1//EN"
 "http://www.w3.org/Graphics/SVG/1.1/DTD/svg11.dtd">
<!-- Generated by graphviz version 2.43.0 (0)
 -->
<!-- Title: /home/aightech/dev/kistler_DAQ/lib/com_client/tool_lib/built_lsl/include/lsl_c.h Pages: 1 -->
<svg width="125pt" height="228pt"
 viewBox="0.00 0.00 125.00 228.00" xmlns="http://www.w3.org/2000/svg" xmlns:xlink="http://www.w3.org/1999/xlink">
<g id="graph0" class="graph" transform="scale(1 1) rotate(0) translate(4 224)">
<title>/home/aightech/dev/kistler_DAQ/lib/com_client/tool_lib/built_lsl/include/lsl_c.h</title>
<!-- Node1 -->
<g id="node1" class="node">
<title>Node1</title>
<g id="a_node1"><a xlink:title=" ">
<polygon fill="#bfbfbf" stroke="black" points="0.5,-167.5 0.5,-219.5 116.5,-219.5 116.5,-167.5 0.5,-167.5"/>
<text text-anchor="start" x="8.5" y="-207.5" font-family="Helvetica,sans-Serif" font-size="10.00">/home/aightech/dev</text>
<text text-anchor="start" x="8.5" y="-196.5" font-family="Helvetica,sans-Serif" font-size="10.00">/kistler_DAQ/lib/com</text>
<text text-anchor="start" x="8.5" y="-185.5" font-family="Helvetica,sans-Serif" font-size="10.00">_client/tool_lib/built</text>
<text text-anchor="middle" x="58.5" y="-174.5" font-family="Helvetica,sans-Serif" font-size="10.00">_lsl/include/lsl_c.h</text>
</a>
</g>
</g>
<!-- Node2 -->
<g id="node2" class="node">
<title>Node2</title>
<g id="a_node2"><a xlink:href="../../d1/d7c/lsl__cpp_8h.html" target="_top" xlink:title=" ">
<polygon fill="none" stroke="black" points="0,-78.5 0,-130.5 117,-130.5 117,-78.5 0,-78.5"/>
<text text-anchor="start" x="8" y="-118.5" font-family="Helvetica,sans-Serif" font-size="10.00">/home/aightech/dev</text>
<text text-anchor="start" x="8" y="-107.5" font-family="Helvetica,sans-Serif" font-size="10.00">/kistler_DAQ/lib/com</text>
<text text-anchor="start" x="8" y="-96.5" font-family="Helvetica,sans-Serif" font-size="10.00">_client/tool_lib/built</text>
<text text-anchor="middle" x="58.5" y="-85.5" font-family="Helvetica,sans-Serif" font-size="10.00">_lsl/include/lsl_cpp.h</text>
</a>
</g>
</g>
<!-- Node1&#45;&gt;Node2 -->
<g id="edge1" class="edge">
<title>Node1&#45;&gt;Node2</title>
<path fill="none" stroke="midnightblue" d="M58.5,-157.19C58.5,-148.28 58.5,-138.9 58.5,-130.61"/>
<polygon fill="midnightblue" stroke="midnightblue" points="55,-157.34 58.5,-167.34 62,-157.34 55,-157.34"/>
</g>
<!-- Node3 -->
<g id="node3" class="node">
<title>Node3</title>
<g id="a_node3"><a xlink:href="../../de/dfb/src_2main_8cpp.html" target="_top" xlink:title=" ">
<polygon fill="none" stroke="black" points="0.5,-0.5 0.5,-41.5 116.5,-41.5 116.5,-0.5 0.5,-0.5"/>
<text text-anchor="start" x="8.5" y="-29.5" font-family="Helvetica,sans-Serif" font-size="10.00">/home/aightech/dev</text>
<text text-anchor="start" x="8.5" y="-18.5" font-family="Helvetica,sans-Serif" font-size="10.00">/kistler_DAQ/lib/com</text>
<text text-anchor="middle" x="58.5" y="-7.5" font-family="Helvetica,sans-Serif" font-size="10.00">_client/src/main.cpp</text>
</a>
</g>
</g>
<!-- Node2&#45;&gt;Node3 -->
<g id="edge2" class="edge">
<title>Node2&#45;&gt;Node3</title>
<path fill="none" stroke="midnightblue" d="M58.5,-68.15C58.5,-59.05 58.5,-49.6 58.5,-41.63"/>
<polygon fill="midnightblue" stroke="midnightblue" points="55,-68.16 58.5,-78.16 62,-68.16 55,-68.16"/>
</g>
</g>
</svg>
