<?xml version="1.0" encoding="UTF-8" standalone="no"?>
<!DOCTYPE svg PUBLIC "-//W3C//DTD SVG 1.1//EN"
 "http://www.w3.org/Graphics/SVG/1.1/DTD/svg11.dtd">
<!-- Generated by graphviz version 2.43.0 (0)
 -->
<!-- Title: ESC::fstr Pages: 1 -->
<svg width="397pt" height="192pt"
 viewBox="0.00 0.00 397.00 192.00" xmlns="http://www.w3.org/2000/svg" xmlns:xlink="http://www.w3.org/1999/xlink">
<g id="graph0" class="graph" transform="scale(1 1) rotate(0) translate(4 188)">
<title>ESC::fstr</title>
<!-- Node1 -->
<g id="node1" class="node">
<title>Node1</title>
<g id="a_node1"><a xlink:title="fstr Prints a formated string.">
<polygon fill="#bfbfbf" stroke="black" points="331,-76.5 331,-95.5 389,-95.5 389,-76.5 331,-76.5"/>
<text text-anchor="middle" x="360" y="-83.5" font-family="Helvetica,sans-Serif" font-size="10.00">ESC::fstr</text>
</a>
</g>
</g>
<!-- Node2 -->
<g id="node2" class="node">
<title>Node2</title>
<g id="a_node2"><a xlink:href="../../dc/d44/class_e_s_c_1_1_c_l_i.html#a47b6c71a4c59354a3f9c0cd9bd011807" target="_top" xlink:title=" ">
<polygon fill="none" stroke="black" points="192.5,-164.5 192.5,-183.5 269.5,-183.5 269.5,-164.5 192.5,-164.5"/>
<text text-anchor="middle" x="231" y="-171.5" font-family="Helvetica,sans-Serif" font-size="10.00">ESC::CLI::CLI</text>
</a>
</g>
</g>
<!-- Node1&#45;&gt;Node2 -->
<g id="edge1" class="edge">
<title>Node1&#45;&gt;Node2</title>
<path fill="none" stroke="midnightblue" d="M346.74,-103.85C335.12,-119.47 316.32,-141.69 295,-155 287.34,-159.78 278.41,-163.42 269.72,-166.16"/>
<polygon fill="midnightblue" stroke="midnightblue" points="349.72,-105.69 352.71,-95.53 344.04,-101.61 349.72,-105.69"/>
</g>
<!-- Node3 -->
<g id="node3" class="node">
<title>Node3</title>
<g id="a_node3"><a xlink:href="../../df/dcd/class_communication_1_1_client.html#aa448a9277e9bed8326f74ad81062ab77" target="_top" xlink:title=" ">
<polygon fill="none" stroke="black" points="167,-115 167,-145 295,-145 295,-115 167,-115"/>
<text text-anchor="start" x="175" y="-133" font-family="Helvetica,sans-Serif" font-size="10.00">Communication::Client</text>
<text text-anchor="middle" x="231" y="-122" font-family="Helvetica,sans-Serif" font-size="10.00">::close_connection</text>
</a>
</g>
</g>
<!-- Node1&#45;&gt;Node3 -->
<g id="edge2" class="edge">
<title>Node1&#45;&gt;Node3</title>
<path fill="none" stroke="midnightblue" d="M321.8,-98.89C307.29,-103.92 290.55,-109.72 275.48,-114.93"/>
<polygon fill="midnightblue" stroke="midnightblue" points="323.14,-102.13 331.44,-95.55 320.85,-95.51 323.14,-102.13"/>
</g>
<!-- Node6 -->
<g id="node6" class="node">
<title>Node6</title>
<g id="a_node6"><a xlink:href="../../d2/d52/namespace_e_s_c.html#a6f0f9c5cc6b334d09b6da6834c02af16" target="_top" xlink:title=" ">
<polygon fill="none" stroke="black" points="196.5,-76.5 196.5,-95.5 265.5,-95.5 265.5,-76.5 196.5,-76.5"/>
<text text-anchor="middle" x="231" y="-83.5" font-family="Helvetica,sans-Serif" font-size="10.00">ESC::fstr_n</text>
</a>
</g>
</g>
<!-- Node1&#45;&gt;Node6 -->
<g id="edge5" class="edge">
<title>Node1&#45;&gt;Node6</title>
<path fill="none" stroke="midnightblue" d="M320.36,-86C302.86,-86 282.36,-86 265.51,-86"/>
<polygon fill="midnightblue" stroke="midnightblue" points="320.81,-89.5 330.81,-86 320.81,-82.5 320.81,-89.5"/>
</g>
<!-- Node7 -->
<g id="node7" class="node">
<title>Node7</title>
<g id="a_node7"><a xlink:href="../../dc/d44/class_e_s_c_1_1_c_l_i.html#aee4e23e87ebd3cf3909f1760a5fda04b" target="_top" xlink:title=" ">
<polygon fill="none" stroke="black" points="178,-38.5 178,-57.5 284,-57.5 284,-38.5 178,-38.5"/>
<text text-anchor="middle" x="231" y="-45.5" font-family="Helvetica,sans-Serif" font-size="10.00">ESC::CLI::log_error</text>
</a>
</g>
</g>
<!-- Node1&#45;&gt;Node7 -->
<g id="edge6" class="edge">
<title>Node1&#45;&gt;Node7</title>
<path fill="none" stroke="midnightblue" d="M321.13,-74.67C302.98,-69.24 281.47,-62.8 264.13,-57.62"/>
<polygon fill="midnightblue" stroke="midnightblue" points="320.23,-78.05 330.81,-77.57 322.24,-71.35 320.23,-78.05"/>
</g>
<!-- Node9 -->
<g id="node9" class="node">
<title>Node9</title>
<g id="a_node9"><a xlink:href="../../d0/d3f/lib_2str_a_n_s_iseq_2src_2main_8cpp.html#a3c04138a5bfe5d72780bb7e82a18e627" target="_top" xlink:title=" ">
<polygon fill="none" stroke="black" points="210.5,-0.5 210.5,-19.5 251.5,-19.5 251.5,-0.5 210.5,-0.5"/>
<text text-anchor="middle" x="231" y="-7.5" font-family="Helvetica,sans-Serif" font-size="10.00">main</text>
</a>
</g>
</g>
<!-- Node1&#45;&gt;Node9 -->
<g id="edge8" class="edge">
<title>Node1&#45;&gt;Node9</title>
<path fill="none" stroke="midnightblue" d="M343.38,-68.49C331.29,-55.9 313.53,-39.37 295,-29 281.44,-21.41 264.51,-16.52 251.61,-13.61"/>
<polygon fill="midnightblue" stroke="midnightblue" points="341.09,-71.16 350.46,-76.09 346.21,-66.39 341.09,-71.16"/>
</g>
<!-- Node4 -->
<g id="node4" class="node">
<title>Node4</title>
<g id="a_node4"><a xlink:href="../../d7/d60/class_communication_1_1_h_t_t_p__client.html#a9cbcd819dda4fc2fd0c4295bce974dff" target="_top" xlink:title=" ">
<polygon fill="none" stroke="black" points="3,-147 3,-177 128,-177 128,-147 3,-147"/>
<text text-anchor="start" x="11" y="-165" font-family="Helvetica,sans-Serif" font-size="10.00">Communication::HTTP</text>
<text text-anchor="middle" x="65.5" y="-154" font-family="Helvetica,sans-Serif" font-size="10.00">_client::~HTTP_client</text>
</a>
</g>
</g>
<!-- Node3&#45;&gt;Node4 -->
<g id="edge3" class="edge">
<title>Node3&#45;&gt;Node4</title>
<path fill="none" stroke="midnightblue" d="M156.88,-144.31C147.3,-146.18 137.57,-148.09 128.2,-149.92"/>
<polygon fill="midnightblue" stroke="midnightblue" points="157.65,-147.73 166.79,-142.37 156.3,-140.86 157.65,-147.73"/>
</g>
<!-- Node5 -->
<g id="node5" class="node">
<title>Node5</title>
<g id="a_node5"><a xlink:href="../../dc/db1/class_communication_1_1_server.html#aef74c77dc02436ee1dc6d16310837b12" target="_top" xlink:title=" ">
<polygon fill="none" stroke="black" points="0,-98 0,-128 131,-128 131,-98 0,-98"/>
<text text-anchor="start" x="8" y="-116" font-family="Helvetica,sans-Serif" font-size="10.00">Communication::Server</text>
<text text-anchor="middle" x="65.5" y="-105" font-family="Helvetica,sans-Serif" font-size="10.00">::~Server</text>
</a>
</g>
</g>
<!-- Node3&#45;&gt;Node5 -->
<g id="edge4" class="edge">
<title>Node3&#45;&gt;Node5</title>
<path fill="none" stroke="midnightblue" d="M156.83,-122.39C148.27,-121.5 139.59,-120.6 131.17,-119.72"/>
<polygon fill="midnightblue" stroke="midnightblue" points="156.48,-125.87 166.79,-123.43 157.2,-118.91 156.48,-125.87"/>
</g>
<!-- Node8 -->
<g id="node8" class="node">
<title>Node8</title>
<g id="a_node8"><a xlink:href="../../dc/db1/class_communication_1_1_server.html#a3571bd6913a55394cde0ced0f404685d" target="_top" xlink:title=" ">
<polygon fill="none" stroke="black" points="0,-33 0,-63 131,-63 131,-33 0,-33"/>
<text text-anchor="start" x="8" y="-51" font-family="Helvetica,sans-Serif" font-size="10.00">Communication::Server</text>
<text text-anchor="middle" x="65.5" y="-40" font-family="Helvetica,sans-Serif" font-size="10.00">::Server</text>
</a>
</g>
</g>
<!-- Node7&#45;&gt;Node8 -->
<g id="edge7" class="edge">
<title>Node7&#45;&gt;Node8</title>
<path fill="none" stroke="midnightblue" d="M167.51,-48C155.59,-48 143.08,-48 131.09,-48"/>
<polygon fill="midnightblue" stroke="midnightblue" points="167.82,-51.5 177.82,-48 167.82,-44.5 167.82,-51.5"/>
</g>
</g>
</svg>
