<?xml version="1.0" encoding="UTF-8" standalone="no"?>
<!DOCTYPE svg PUBLIC "-//W3C//DTD SVG 1.1//EN"
 "http://www.w3.org/Graphics/SVG/1.1/DTD/svg11.dtd">
<!-- Generated by graphviz version 2.43.0 (0)
 -->
<!-- Title: Graphical Class Hierarchy Pages: 1 -->
<svg width="231pt" height="116pt"
 viewBox="0.00 0.00 231.00 116.00" xmlns="http://www.w3.org/2000/svg" xmlns:xlink="http://www.w3.org/1999/xlink">
<g id="graph0" class="graph" transform="scale(1 1) rotate(0) translate(4 112)">
<title>Graphical Class Hierarchy</title>
<!-- Node0 -->
<g id="node1" class="node">
<title>Node0</title>
<g id="a_node1"><a xlink:href="dc/d44/class_e_s_c_1_1_c_l_i.html" target="_top" xlink:title=" ">
<polygon fill="none" stroke="black" points="0,-44.5 0,-63.5 56,-63.5 56,-44.5 0,-44.5"/>
<text text-anchor="middle" x="28" y="-51.5" font-family="Helvetica,sans-Serif" font-size="10.00">ESC::CLI</text>
</a>
</g>
</g>
<!-- Node1 -->
<g id="node2" class="node">
<title>Node1</title>
<g id="a_node2"><a xlink:href="df/dcd/class_communication_1_1_client.html" target="_top" xlink:title="Communication client class.">
<polygon fill="none" stroke="black" points="93.5,-88.5 93.5,-107.5 221.5,-107.5 221.5,-88.5 93.5,-88.5"/>
<text text-anchor="middle" x="157.5" y="-95.5" font-family="Helvetica,sans-Serif" font-size="10.00">Communication::Client</text>
</a>
</g>
</g>
<!-- Node0&#45;&gt;Node1 -->
<g id="edge1" class="edge">
<title>Node0&#45;&gt;Node1</title>
<path fill="none" stroke="midnightblue" d="M61,-67.35C70.87,-71.29 81.82,-75.49 92,-79 101.6,-82.31 112.13,-85.57 121.84,-88.42"/>
<polygon fill="midnightblue" stroke="midnightblue" points="62.14,-64.04 51.56,-63.53 59.51,-70.53 62.14,-64.04"/>
</g>
<!-- Node2 -->
<g id="node3" class="node">
<title>Node2</title>
<g id="a_node3"><a xlink:href="d7/d60/class_communication_1_1_h_t_t_p__client.html" target="_top" xlink:title=" ">
<polygon fill="none" stroke="black" points="95,-39 95,-69 220,-69 220,-39 95,-39"/>
<text text-anchor="start" x="103" y="-57" font-family="Helvetica,sans-Serif" font-size="10.00">Communication::HTTP</text>
<text text-anchor="middle" x="157.5" y="-46" font-family="Helvetica,sans-Serif" font-size="10.00">_client</text>
</a>
</g>
</g>
<!-- Node0&#45;&gt;Node2 -->
<g id="edge2" class="edge">
<title>Node0&#45;&gt;Node2</title>
<path fill="none" stroke="midnightblue" d="M66.17,-54C75.18,-54 85.06,-54 94.87,-54"/>
<polygon fill="midnightblue" stroke="midnightblue" points="66.04,-50.5 56.04,-54 66.04,-57.5 66.04,-50.5"/>
</g>
<!-- Node3 -->
<g id="node4" class="node">
<title>Node3</title>
<g id="a_node4"><a xlink:href="dc/db1/class_communication_1_1_server.html" target="_top" xlink:title=" ">
<polygon fill="none" stroke="black" points="92,-0.5 92,-19.5 223,-19.5 223,-0.5 92,-0.5"/>
<text text-anchor="middle" x="157.5" y="-7.5" font-family="Helvetica,sans-Serif" font-size="10.00">Communication::Server</text>
</a>
</g>
</g>
<!-- Node0&#45;&gt;Node3 -->
<g id="edge3" class="edge">
<title>Node0&#45;&gt;Node3</title>
<path fill="none" stroke="midnightblue" d="M62.59,-40.75C72.05,-37.14 82.39,-33.32 92,-30 102.42,-26.4 113.88,-22.75 124.22,-19.57"/>
<polygon fill="midnightblue" stroke="midnightblue" points="61.17,-37.55 53.1,-44.41 63.69,-44.08 61.17,-37.55"/>
</g>
</g>
</svg>
