<?xml version="1.0" encoding="UTF-8" standalone="no"?>
<!DOCTYPE svg PUBLIC "-//W3C//DTD SVG 1.1//EN"
 "http://www.w3.org/Graphics/SVG/1.1/DTD/svg11.dtd">
<!-- Generated by graphviz version 2.43.0 (0)
 -->
<!-- Title: ESC::CLI Pages: 1 -->
<svg width="429pt" height="95pt"
 viewBox="0.00 0.00 428.50 95.00" xmlns="http://www.w3.org/2000/svg" xmlns:xlink="http://www.w3.org/1999/xlink">
<g id="graph0" class="graph" transform="scale(1 1) rotate(0) translate(4 91)">
<title>ESC::CLI</title>
<!-- Node1 -->
<g id="node1" class="node">
<title>Node1</title>
<g id="a_node1"><a xlink:title=" ">
<polygon fill="#bfbfbf" stroke="black" points="181,-67.5 181,-86.5 237,-86.5 237,-67.5 181,-67.5"/>
<text text-anchor="middle" x="209" y="-74.5" font-family="Helvetica,sans-Serif" font-size="10.00">ESC::CLI</text>
</a>
</g>
</g>
<!-- Node2 -->
<g id="node2" class="node">
<title>Node2</title>
<g id="a_node2"><a xlink:href="../../df/dcd/class_communication_1_1_client.html" target="_top" xlink:title="Communication client class.">
<polygon fill="none" stroke="black" points="0,-6 0,-25 128,-25 128,-6 0,-6"/>
<text text-anchor="middle" x="64" y="-13" font-family="Helvetica,sans-Serif" font-size="10.00">Communication::Client</text>
</a>
</g>
</g>
<!-- Node1&#45;&gt;Node2 -->
<g id="edge1" class="edge">
<title>Node1&#45;&gt;Node2</title>
<path fill="none" stroke="midnightblue" d="M178.86,-63.63C150.69,-52.07 109.38,-35.12 84.74,-25.01"/>
<polygon fill="midnightblue" stroke="midnightblue" points="177.64,-66.92 188.23,-67.48 180.3,-60.44 177.64,-66.92"/>
</g>
<!-- Node3 -->
<g id="node3" class="node">
<title>Node3</title>
<g id="a_node3"><a xlink:href="../../d7/d60/class_communication_1_1_h_t_t_p__client.html" target="_top" xlink:title=" ">
<polygon fill="none" stroke="black" points="146.5,-0.5 146.5,-30.5 271.5,-30.5 271.5,-0.5 146.5,-0.5"/>
<text text-anchor="start" x="154.5" y="-18.5" font-family="Helvetica,sans-Serif" font-size="10.00">Communication::HTTP</text>
<text text-anchor="middle" x="209" y="-7.5" font-family="Helvetica,sans-Serif" font-size="10.00">_client</text>
</a>
</g>
</g>
<!-- Node1&#45;&gt;Node3 -->
<g id="edge2" class="edge">
<title>Node1&#45;&gt;Node3</title>
<path fill="none" stroke="midnightblue" d="M209,-57.23C209,-48.59 209,-38.5 209,-30.52"/>
<polygon fill="midnightblue" stroke="midnightblue" points="205.5,-57.48 209,-67.48 212.5,-57.48 205.5,-57.48"/>
</g>
<!-- Node4 -->
<g id="node4" class="node">
<title>Node4</title>
<g id="a_node4"><a xlink:href="../../dc/db1/class_communication_1_1_server.html" target="_top" xlink:title=" ">
<polygon fill="none" stroke="black" points="289.5,-6 289.5,-25 420.5,-25 420.5,-6 289.5,-6"/>
<text text-anchor="middle" x="355" y="-13" font-family="Helvetica,sans-Serif" font-size="10.00">Communication::Server</text>
</a>
</g>
</g>
<!-- Node1&#45;&gt;Node4 -->
<g id="edge3" class="edge">
<title>Node1&#45;&gt;Node4</title>
<path fill="none" stroke="midnightblue" d="M239.35,-63.63C267.71,-52.07 309.31,-35.12 334.12,-25.01"/>
<polygon fill="midnightblue" stroke="midnightblue" points="237.86,-60.46 229.92,-67.48 240.5,-66.94 237.86,-60.46"/>
</g>
</g>
</svg>
