<?xml version="1.0" encoding="UTF-8" standalone="no"?>
<!DOCTYPE svg PUBLIC "-//W3C//DTD SVG 1.1//EN"
 "http://www.w3.org/Graphics/SVG/1.1/DTD/svg11.dtd">
<!-- Generated by graphviz version 2.43.0 (0)
 -->
<!-- Title: Communication::Client::CRC Pages: 1 -->
<svg width="491pt" height="176pt"
 viewBox="0.00 0.00 491.00 175.50" xmlns="http://www.w3.org/2000/svg" xmlns:xlink="http://www.w3.org/1999/xlink">
<g id="graph0" class="graph" transform="scale(1 1) rotate(0) translate(4 171.5)">
<title>Communication::Client::CRC</title>
<!-- Node1 -->
<g id="node1" class="node">
<title>Node1</title>
<g id="a_node1"><a xlink:title="CRC Compute and return the CRC over the n first bytes of buf.">
<polygon fill="#bfbfbf" stroke="black" points="328,-79 328,-98 483,-98 483,-79 328,-79"/>
<text text-anchor="middle" x="405.5" y="-86" font-family="Helvetica,sans-Serif" font-size="10.00">Communication::Client::CRC</text>
</a>
</g>
</g>
<!-- Node2 -->
<g id="node2" class="node">
<title>Node2</title>
<g id="a_node2"><a xlink:href="../../df/dcd/class_communication_1_1_client.html#a73fec58648938364cd65d690f50bd7ec" target="_top" xlink:title="readS read the com inmterface.">
<polygon fill="none" stroke="black" points="164,-98.5 164,-128.5 292,-128.5 292,-98.5 164,-98.5"/>
<text text-anchor="start" x="172" y="-116.5" font-family="Helvetica,sans-Serif" font-size="10.00">Communication::Client</text>
<text text-anchor="middle" x="228" y="-105.5" font-family="Helvetica,sans-Serif" font-size="10.00">::readS</text>
</a>
</g>
</g>
<!-- Node1&#45;&gt;Node2 -->
<g id="edge1" class="edge">
<title>Node1&#45;&gt;Node2</title>
<path fill="none" stroke="midnightblue" d="M327.4,-99.48C315.64,-101.16 303.61,-102.87 292.19,-104.5"/>
<polygon fill="midnightblue" stroke="midnightblue" points="328.24,-102.9 337.65,-98.02 327.26,-95.97 328.24,-102.9"/>
</g>
<!-- Node7 -->
<g id="node7" class="node">
<title>Node7</title>
<g id="a_node7"><a xlink:href="../../df/dcd/class_communication_1_1_client.html#a32bd631bcb3b0a3476b146a0cc49332d" target="_top" xlink:title="writeS write the com interface.">
<polygon fill="none" stroke="black" points="164,-49.5 164,-79.5 292,-79.5 292,-49.5 164,-49.5"/>
<text text-anchor="start" x="172" y="-67.5" font-family="Helvetica,sans-Serif" font-size="10.00">Communication::Client</text>
<text text-anchor="middle" x="228" y="-56.5" font-family="Helvetica,sans-Serif" font-size="10.00">::writeS</text>
</a>
</g>
</g>
<!-- Node1&#45;&gt;Node7 -->
<g id="edge6" class="edge">
<title>Node1&#45;&gt;Node7</title>
<path fill="none" stroke="midnightblue" d="M324.91,-77.62C313.97,-76.12 302.86,-74.6 292.26,-73.15"/>
<polygon fill="midnightblue" stroke="midnightblue" points="324.5,-81.09 334.89,-78.98 325.45,-74.16 324.5,-81.09"/>
</g>
<!-- Node3 -->
<g id="node3" class="node">
<title>Node3</title>
<g id="a_node3"><a xlink:href="../../d7/d60/class_communication_1_1_h_t_t_p__client.html#a6c2e964c4510d91b79ff9303b672582e" target="_top" xlink:title=" ">
<polygon fill="none" stroke="black" points="1.5,-49.5 1.5,-79.5 126.5,-79.5 126.5,-49.5 1.5,-49.5"/>
<text text-anchor="start" x="9.5" y="-67.5" font-family="Helvetica,sans-Serif" font-size="10.00">Communication::HTTP</text>
<text text-anchor="middle" x="64" y="-56.5" font-family="Helvetica,sans-Serif" font-size="10.00">_client::get</text>
</a>
</g>
</g>
<!-- Node2&#45;&gt;Node3 -->
<g id="edge2" class="edge">
<title>Node2&#45;&gt;Node3</title>
<path fill="none" stroke="midnightblue" d="M167.12,-95.39C149.89,-90.18 131.3,-84.55 114.76,-79.55"/>
<polygon fill="midnightblue" stroke="midnightblue" points="166.49,-98.85 177.07,-98.4 168.51,-92.15 166.49,-98.85"/>
</g>
<!-- Node4 -->
<g id="node4" class="node">
<title>Node4</title>
<g id="a_node4"><a xlink:href="../../df/dcd/class_communication_1_1_client.html#a2508e02531cf7e8dd258677b7b1490e9" target="_top" xlink:title=" ">
<polygon fill="none" stroke="black" points="0,-0.5 0,-30.5 128,-30.5 128,-0.5 0,-0.5"/>
<text text-anchor="start" x="8" y="-18.5" font-family="Helvetica,sans-Serif" font-size="10.00">Communication::Client</text>
<text text-anchor="middle" x="64" y="-7.5" font-family="Helvetica,sans-Serif" font-size="10.00">::get_stat</text>
</a>
</g>
</g>
<!-- Node2&#45;&gt;Node4 -->
<g id="edge3" class="edge">
<title>Node2&#45;&gt;Node4</title>
<path fill="none" stroke="midnightblue" d="M171.32,-93.53C168.77,-91.96 166.31,-90.29 164,-88.5 142.61,-71.99 149.5,-55.87 128,-39.5 123.53,-36.1 118.52,-33.13 113.33,-30.55"/>
<polygon fill="midnightblue" stroke="midnightblue" points="169.85,-96.71 180.3,-98.46 173.22,-90.58 169.85,-96.71"/>
</g>
<!-- Node5 -->
<g id="node5" class="node">
<title>Node5</title>
<g id="a_node5"><a xlink:href="../../de/dfb/src_2main_8cpp.html#a3c04138a5bfe5d72780bb7e82a18e627" target="_top" xlink:title=" ">
<polygon fill="none" stroke="black" points="43.5,-148 43.5,-167 84.5,-167 84.5,-148 43.5,-148"/>
<text text-anchor="middle" x="64" y="-155" font-family="Helvetica,sans-Serif" font-size="10.00">main</text>
</a>
</g>
</g>
<!-- Node2&#45;&gt;Node5 -->
<g id="edge4" class="edge">
<title>Node2&#45;&gt;Node5</title>
<path fill="none" stroke="midnightblue" d="M162.04,-131.14C134.34,-138.67 104.03,-146.9 84.79,-152.13"/>
<polygon fill="midnightblue" stroke="midnightblue" points="162.97,-134.52 171.7,-128.52 161.13,-127.76 162.97,-134.52"/>
</g>
<!-- Node6 -->
<g id="node6" class="node">
<title>Node6</title>
<g id="a_node6"><a xlink:href="../../d7/d60/class_communication_1_1_h_t_t_p__client.html#a241e78ccad7bcbc7597cb2dde7d7e402" target="_top" xlink:title=" ">
<polygon fill="none" stroke="black" points="1.5,-98.5 1.5,-128.5 126.5,-128.5 126.5,-98.5 1.5,-98.5"/>
<text text-anchor="start" x="9.5" y="-116.5" font-family="Helvetica,sans-Serif" font-size="10.00">Communication::HTTP</text>
<text text-anchor="middle" x="64" y="-105.5" font-family="Helvetica,sans-Serif" font-size="10.00">_client::post</text>
</a>
</g>
</g>
<!-- Node2&#45;&gt;Node6 -->
<g id="edge5" class="edge">
<title>Node2&#45;&gt;Node6</title>
<path fill="none" stroke="midnightblue" d="M153.74,-113.5C144.67,-113.5 135.47,-113.5 126.6,-113.5"/>
<polygon fill="midnightblue" stroke="midnightblue" points="153.9,-117 163.9,-113.5 153.9,-110 153.9,-117"/>
</g>
<!-- Node7&#45;&gt;Node3 -->
<g id="edge7" class="edge">
<title>Node7&#45;&gt;Node3</title>
<path fill="none" stroke="midnightblue" d="M153.74,-64.5C144.67,-64.5 135.47,-64.5 126.6,-64.5"/>
<polygon fill="midnightblue" stroke="midnightblue" points="153.9,-68 163.9,-64.5 153.9,-61 153.9,-68"/>
</g>
<!-- Node7&#45;&gt;Node4 -->
<g id="edge8" class="edge">
<title>Node7&#45;&gt;Node4</title>
<path fill="none" stroke="midnightblue" d="M167.12,-46.39C149.89,-41.18 131.3,-35.55 114.76,-30.55"/>
<polygon fill="midnightblue" stroke="midnightblue" points="166.49,-49.85 177.07,-49.4 168.51,-43.15 166.49,-49.85"/>
</g>
<!-- Node7&#45;&gt;Node5 -->
<g id="edge9" class="edge">
<title>Node7&#45;&gt;Node5</title>
<path fill="none" stroke="midnightblue" d="M169.67,-84.54C167.71,-85.79 165.81,-87.11 164,-88.5 142.29,-105.19 150.29,-122.59 128,-138.5 115.17,-147.66 97.86,-152.46 84.64,-154.95"/>
<polygon fill="midnightblue" stroke="midnightblue" points="171.63,-87.46 178.64,-79.5 168.2,-81.35 171.63,-87.46"/>
</g>
<!-- Node7&#45;&gt;Node6 -->
<g id="edge10" class="edge">
<title>Node7&#45;&gt;Node6</title>
<path fill="none" stroke="midnightblue" d="M167.12,-82.61C149.89,-87.82 131.3,-93.45 114.76,-98.45"/>
<polygon fill="midnightblue" stroke="midnightblue" points="168.51,-85.85 177.07,-79.6 166.49,-79.15 168.51,-85.85"/>
</g>
</g>
</svg>
