<?xml version="1.0" encoding="UTF-8" standalone="no"?>
<!DOCTYPE svg PUBLIC "-//W3C//DTD SVG 1.1//EN"
 "http://www.w3.org/Graphics/SVG/1.1/DTD/svg11.dtd">
<!-- Generated by graphviz version 2.43.0 (0)
 -->
<!-- Title: Communication::Client::readS Pages: 1 -->
<svg width="300pt" height="176pt"
 viewBox="0.00 0.00 300.00 176.00" xmlns="http://www.w3.org/2000/svg" xmlns:xlink="http://www.w3.org/1999/xlink">
<g id="graph0" class="graph" transform="scale(1 1) rotate(0) translate(4 172)">
<title>Communication::Client::readS</title>
<!-- Node1 -->
<g id="node1" class="node">
<title>Node1</title>
<g id="a_node1"><a xlink:title="readS read the com inmterface.">
<polygon fill="#bfbfbf" stroke="black" points="164,-66.5 164,-96.5 292,-96.5 292,-66.5 164,-66.5"/>
<text text-anchor="start" x="172" y="-84.5" font-family="Helvetica,sans-Serif" font-size="10.00">Communication::Client</text>
<text text-anchor="middle" x="228" y="-73.5" font-family="Helvetica,sans-Serif" font-size="10.00">::readS</text>
</a>
</g>
</g>
<!-- Node2 -->
<g id="node2" class="node">
<title>Node2</title>
<g id="a_node2"><a xlink:href="../../d7/d60/class_communication_1_1_h_t_t_p__client.html#a6c2e964c4510d91b79ff9303b672582e" target="_top" xlink:title=" ">
<polygon fill="none" stroke="black" points="1.5,-137.5 1.5,-167.5 126.5,-167.5 126.5,-137.5 1.5,-137.5"/>
<text text-anchor="start" x="9.5" y="-155.5" font-family="Helvetica,sans-Serif" font-size="10.00">Communication::HTTP</text>
<text text-anchor="middle" x="64" y="-144.5" font-family="Helvetica,sans-Serif" font-size="10.00">_client::get</text>
</a>
</g>
</g>
<!-- Node1&#45;&gt;Node2 -->
<g id="edge1" class="edge">
<title>Node1&#45;&gt;Node2</title>
<path fill="none" stroke="midnightblue" d="M187.87,-100.95C169.8,-109.71 147.97,-119.97 128,-128.5 120.9,-131.53 113.27,-134.6 105.86,-137.48"/>
<polygon fill="midnightblue" stroke="midnightblue" points="189.5,-104.05 196.95,-96.53 186.43,-97.76 189.5,-104.05"/>
</g>
<!-- Node3 -->
<g id="node3" class="node">
<title>Node3</title>
<g id="a_node3"><a xlink:href="../../df/dcd/class_communication_1_1_client.html#a2508e02531cf7e8dd258677b7b1490e9" target="_top" xlink:title=" ">
<polygon fill="none" stroke="black" points="0,-88.5 0,-118.5 128,-118.5 128,-88.5 0,-88.5"/>
<text text-anchor="start" x="8" y="-106.5" font-family="Helvetica,sans-Serif" font-size="10.00">Communication::Client</text>
<text text-anchor="middle" x="64" y="-95.5" font-family="Helvetica,sans-Serif" font-size="10.00">::get_stat</text>
</a>
</g>
</g>
<!-- Node1&#45;&gt;Node3 -->
<g id="edge2" class="edge">
<title>Node1&#45;&gt;Node3</title>
<path fill="none" stroke="midnightblue" d="M153.91,-91.43C145.32,-92.59 136.62,-93.77 128.19,-94.92"/>
<polygon fill="midnightblue" stroke="midnightblue" points="154.46,-94.88 163.9,-90.07 153.52,-87.95 154.46,-94.88"/>
</g>
<!-- Node4 -->
<g id="node4" class="node">
<title>Node4</title>
<g id="a_node4"><a xlink:href="../../de/dfb/src_2main_8cpp.html#a3c04138a5bfe5d72780bb7e82a18e627" target="_top" xlink:title=" ">
<polygon fill="none" stroke="black" points="43.5,-50 43.5,-69 84.5,-69 84.5,-50 43.5,-50"/>
<text text-anchor="middle" x="64" y="-57" font-family="Helvetica,sans-Serif" font-size="10.00">main</text>
</a>
</g>
</g>
<!-- Node1&#45;&gt;Node4 -->
<g id="edge3" class="edge">
<title>Node1&#45;&gt;Node4</title>
<path fill="none" stroke="midnightblue" d="M153.87,-71.57C128.47,-68.12 102.04,-64.53 84.67,-62.17"/>
<polygon fill="midnightblue" stroke="midnightblue" points="153.52,-75.05 163.9,-72.93 154.46,-68.12 153.52,-75.05"/>
</g>
<!-- Node5 -->
<g id="node5" class="node">
<title>Node5</title>
<g id="a_node5"><a xlink:href="../../d7/d60/class_communication_1_1_h_t_t_p__client.html#a241e78ccad7bcbc7597cb2dde7d7e402" target="_top" xlink:title=" ">
<polygon fill="none" stroke="black" points="1.5,-0.5 1.5,-30.5 126.5,-30.5 126.5,-0.5 1.5,-0.5"/>
<text text-anchor="start" x="9.5" y="-18.5" font-family="Helvetica,sans-Serif" font-size="10.00">Communication::HTTP</text>
<text text-anchor="middle" x="64" y="-7.5" font-family="Helvetica,sans-Serif" font-size="10.00">_client::post</text>
</a>
</g>
</g>
<!-- Node1&#45;&gt;Node5 -->
<g id="edge4" class="edge">
<title>Node1&#45;&gt;Node5</title>
<path fill="none" stroke="midnightblue" d="M181.29,-62.4C164.55,-55.45 145.44,-47.57 128,-40.5 120.04,-37.27 111.5,-33.85 103.35,-30.61"/>
<polygon fill="midnightblue" stroke="midnightblue" points="180.27,-65.77 190.85,-66.38 182.96,-59.31 180.27,-65.77"/>
</g>
</g>
</svg>
