<?xml version="1.0" encoding="UTF-8" standalone="no"?>
<!DOCTYPE svg PUBLIC "-//W3C//DTD SVG 1.1//EN"
 "http://www.w3.org/Graphics/SVG/1.1/DTD/svg11.dtd">
<!-- Generated by graphviz version 2.43.0 (0)
 -->
<!-- Title: ESC::CLI::logln Pages: 1 -->
<svg width="425pt" height="112pt"
 viewBox="0.00 0.00 425.00 112.00" xmlns="http://www.w3.org/2000/svg" xmlns:xlink="http://www.w3.org/1999/xlink">
<g id="graph0" class="graph" transform="scale(1 1) rotate(0) translate(4 108)">
<title>ESC::CLI::logln</title>
<!-- Node1 -->
<g id="node1" class="node">
<title>Node1</title>
<g id="a_node1"><a xlink:title=" ">
<polygon fill="#bfbfbf" stroke="black" points="331,-54 331,-73 417,-73 417,-54 331,-54"/>
<text text-anchor="middle" x="374" y="-61" font-family="Helvetica,sans-Serif" font-size="10.00">ESC::CLI::logln</text>
</a>
</g>
</g>
<!-- Node2 -->
<g id="node2" class="node">
<title>Node2</title>
<g id="a_node2"><a xlink:href="../../df/dcd/class_communication_1_1_client.html#aea957bd14f311e1f6621e7611022b5c4" target="_top" xlink:title=" ">
<polygon fill="none" stroke="black" points="167,-73.5 167,-103.5 295,-103.5 295,-73.5 167,-73.5"/>
<text text-anchor="start" x="175" y="-91.5" font-family="Helvetica,sans-Serif" font-size="10.00">Communication::Client</text>
<text text-anchor="middle" x="231" y="-80.5" font-family="Helvetica,sans-Serif" font-size="10.00">::Client</text>
</a>
</g>
</g>
<!-- Node1&#45;&gt;Node2 -->
<g id="edge1" class="edge">
<title>Node1&#45;&gt;Node2</title>
<path fill="none" stroke="midnightblue" d="M320.74,-72.77C312.4,-74.25 303.69,-75.79 295.13,-77.31"/>
<polygon fill="midnightblue" stroke="midnightblue" points="321.46,-76.19 330.7,-71 320.24,-69.3 321.46,-76.19"/>
</g>
<!-- Node3 -->
<g id="node3" class="node">
<title>Node3</title>
<g id="a_node3"><a xlink:href="../../df/dcd/class_communication_1_1_client.html#aa448a9277e9bed8326f74ad81062ab77" target="_top" xlink:title=" ">
<polygon fill="none" stroke="black" points="167,-24.5 167,-54.5 295,-54.5 295,-24.5 167,-24.5"/>
<text text-anchor="start" x="175" y="-42.5" font-family="Helvetica,sans-Serif" font-size="10.00">Communication::Client</text>
<text text-anchor="middle" x="231" y="-31.5" font-family="Helvetica,sans-Serif" font-size="10.00">::close_connection</text>
</a>
</g>
</g>
<!-- Node1&#45;&gt;Node3 -->
<g id="edge2" class="edge">
<title>Node1&#45;&gt;Node3</title>
<path fill="none" stroke="midnightblue" d="M320.74,-54.6C312.4,-53.18 303.69,-51.7 295.13,-50.25"/>
<polygon fill="midnightblue" stroke="midnightblue" points="320.25,-58.07 330.7,-56.3 321.42,-51.17 320.25,-58.07"/>
</g>
<!-- Node4 -->
<g id="node4" class="node">
<title>Node4</title>
<g id="a_node4"><a xlink:href="../../d7/d60/class_communication_1_1_h_t_t_p__client.html#a9cbcd819dda4fc2fd0c4295bce974dff" target="_top" xlink:title=" ">
<polygon fill="none" stroke="black" points="3,-49.5 3,-79.5 128,-79.5 128,-49.5 3,-49.5"/>
<text text-anchor="start" x="11" y="-67.5" font-family="Helvetica,sans-Serif" font-size="10.00">Communication::HTTP</text>
<text text-anchor="middle" x="65.5" y="-56.5" font-family="Helvetica,sans-Serif" font-size="10.00">_client::~HTTP_client</text>
</a>
</g>
</g>
<!-- Node3&#45;&gt;Node4 -->
<g id="edge3" class="edge">
<title>Node3&#45;&gt;Node4</title>
<path fill="none" stroke="midnightblue" d="M156.88,-50.68C147.3,-52.14 137.57,-53.63 128.2,-55.07"/>
<polygon fill="midnightblue" stroke="midnightblue" points="157.43,-54.14 166.79,-49.17 156.37,-47.22 157.43,-54.14"/>
</g>
<!-- Node5 -->
<g id="node5" class="node">
<title>Node5</title>
<g id="a_node5"><a xlink:href="../../dc/db1/class_communication_1_1_server.html#aef74c77dc02436ee1dc6d16310837b12" target="_top" xlink:title=" ">
<polygon fill="none" stroke="black" points="0,-0.5 0,-30.5 131,-30.5 131,-0.5 0,-0.5"/>
<text text-anchor="start" x="8" y="-18.5" font-family="Helvetica,sans-Serif" font-size="10.00">Communication::Server</text>
<text text-anchor="middle" x="65.5" y="-7.5" font-family="Helvetica,sans-Serif" font-size="10.00">::~Server</text>
</a>
</g>
</g>
<!-- Node3&#45;&gt;Node5 -->
<g id="edge4" class="edge">
<title>Node3&#45;&gt;Node5</title>
<path fill="none" stroke="midnightblue" d="M156.83,-28.76C148.27,-27.5 139.59,-26.23 131.17,-24.99"/>
<polygon fill="midnightblue" stroke="midnightblue" points="156.38,-32.23 166.79,-30.22 157.4,-25.31 156.38,-32.23"/>
</g>
</g>
</svg>
